<svg xmlns="http://www.w3.org/2000/svg" xmlns:xlink="http://www.w3.org/1999/xlink" xmlns:lucid="lucid" width="1133.86" height="439.94"><g transform="translate(0 0)" lucid:page-tab-id="0_0"><path d="M225.6 129.33h821.75" stroke="#000" stroke-width="2" fill="none"/><path d="M1062.35 129.33l-14.26 4.64v-9.27z" stroke="#000" stroke-width="2"/><path d="M812 130c0 5.52-4.48 10-10 10s-10-4.48-10-10 4.48-10 10-10 10 4.48 10 10zM992 130c0 5.52-4.48 10-10 10s-10-4.48-10-10 4.48-10 10-10 10 4.48 10 10z" stroke="#000" stroke-width="2" fill="#fff"/><path d="M682 154h240v60H682z" stroke="#000" stroke-opacity="0" stroke-width="2" fill="#fff" fill-opacity="0"/><use xlink:href="#a" transform="matrix(1,0,0,1,687,159) translate(40.22500000000001 17.799999999999997)"/><use xlink:href="#b" transform="matrix(1,0,0,1,687,159) translate(35.125 39.4)"/><path d="M852 154h240v60H852z" stroke="#000" stroke-opacity="0" stroke-width="2" fill="#fff" fill-opacity="0"/><use xlink:href="#c" transform="matrix(1,0,0,1,857,159) translate(39.7 17.799999999999997)"/><use xlink:href="#d" transform="matrix(1,0,0,1,857,159) translate(35.125 39.4)"/><path d="M212 283.33h821.75" stroke="#000" stroke-width="2" fill="none"/><path d="M1048.75 283.33l-14.26 4.64v-9.27z" stroke="#000" stroke-width="2"/><path d="M452 284c0 5.52-4.48 10-10 10s-10-4.48-10-10 4.48-10 10-10 10 4.48 10 10zM252 284c0 5.52-4.48 10-10 10s-10-4.48-10-10 4.48-10 10-10 10 4.48 10 10z" stroke="#000" stroke-width="2" fill="#fff"/><path d="M312 308h240v60H312z" stroke="#000" stroke-opacity="0" stroke-width="2" fill="#fff" fill-opacity="0"/><use xlink:href="#a" transform="matrix(1,0,0,1,317.00000000000006,313) translate(40.22500000000001 17.799999999999997)"/><use xlink:href="#e" transform="matrix(1,0,0,1,317.00000000000006,313) translate(35.125 39.4)"/><path d="M122 308h240v60H122z" stroke="#000" stroke-opacity="0" stroke-width="2" fill="#fff" fill-opacity="0"/><use xlink:href="#c" transform="matrix(1,0,0,1,127,313) translate(39.7 17.799999999999997)"/><use xlink:href="#f" transform="matrix(1,0,0,1,127,313) translate(35.125 39.4)"/><path d="M32 100h140v60H32z" stroke="#000" stroke-opacity="0" stroke-width="2" fill="#fff" fill-opacity="0"/><use xlink:href="#g" transform="matrix(1,0,0,1,37,105) translate(19.574999999999996 28.6)"/><use xlink:href="#h" transform="matrix(1,0,0,1,37,105) translate(73.475 28.6)"/><path d="M32 246.6h140v74.8H32z" stroke="#000" stroke-opacity="0" stroke-width="2" fill="#fff" fill-opacity="0"/><use xlink:href="#i" transform="matrix(1,0,0,1,37,251.6) translate(40.55 14.500000000000002)"/><use xlink:href="#j" transform="matrix(1,0,0,1,37,251.6) translate(19.124999999999993 36.1)"/><use xlink:href="#h" transform="matrix(1,0,0,1,37,251.6) translate(46.525 57.7)"/><path d="M352 130c0 5.52-4.48 10-10 10s-10-4.48-10-10 4.48-10 10-10 10 4.48 10 10z" stroke="#c92d39" stroke-width="2" fill="#fff"/><path d="M222 40h240v60H222z" stroke="#000" stroke-opacity="0" stroke-width="2" fill="#fff" fill-opacity="0"/><g><use xlink:href="#k" transform="matrix(1,0,0,1,227,45) translate(21.17500000000001 17.799999999999997)"/><use xlink:href="#l" transform="matrix(1,0,0,1,227,45) translate(35.125 39.4)"/></g><path d="M532 308h240v60H532z" stroke="#000" stroke-opacity="0" stroke-width="2" fill="#fff" fill-opacity="0"/><g><use xlink:href="#k" transform="matrix(1,0,0,1,537,313) translate(21.17500000000001 17.799999999999997)"/><use xlink:href="#m" transform="matrix(1,0,0,1,537,313) translate(35.625 39.4)"/></g><path d="M632 284c0 5.52-4.48 10-10 10s-10-4.48-10-10 4.48-10 10-10 10 4.48 10 10z" stroke="#c92d39" stroke-width="2" fill="#fff"/><g><path d="M346.67 173.67v63.73H352l-10.67 9.6-10.66-9.6H336v-63.73z" stroke="#c92d39" stroke-width="2" fill="#c92d39"/></g><defs><path d="M137-138c1-29-70-34-71-4 15 46 118 7 119 86 1 83-164 76-172 9l43-7c4 19 20 25 44 25 33 8 57-30 24-41C81-84 22-81 20-136c-2-80 154-74 161-7" id="n"/><path d="M115-3C79 11 28 4 28-45v-112H4v-33h27l15-45h31v45h36v33H77v99c-1 23 16 31 38 25v30" id="o"/><path d="M110-194c64 0 96 36 96 99 0 64-35 99-97 99-61 0-95-36-95-99 0-62 34-99 96-99zm-1 164c35 0 45-28 45-65 0-40-10-65-43-65-34 0-45 26-45 65 0 36 10 65 43 65" id="p"/><path d="M135-194c53 0 70 44 70 98 0 56-19 98-73 100-31 1-45-17-59-34 3 33 2 69 2 105H25l-1-265h48c2 10 0 23 3 31 11-24 29-35 60-35zM114-30c33 0 39-31 40-66 0-38-9-64-40-64-56 0-55 130 0 130" id="q"/><path d="M230 0l2-204L168 0h-37L68-204 70 0H24v-248h70l56 185 57-185h69V0h-46" id="r"/><path d="M128 0H69L1-190h53L99-40l48-150h52" id="s"/><path d="M25-224v-37h50v37H25zM25 0v-190h50V0H25" id="t"/><path d="M135-194c87-1 58 113 63 194h-50c-7-57 23-157-34-157-59 0-34 97-39 157H25l-1-190h47c2 12-1 28 3 38 12-26 28-41 61-42" id="u"/><path d="M195-6C206 82 75 100 31 46c-4-6-6-13-8-21l49-6c3 16 16 24 34 25 40 0 42-37 40-79-11 22-30 35-61 35-53 0-70-43-70-97 0-56 18-96 73-97 30 0 46 14 59 34l2-30h47zm-90-29c32 0 41-27 41-63 0-35-9-62-40-62-32 0-39 29-40 63 0 36 9 62 39 62" id="v"/><path d="M24 0v-248h195v40H76v63h132v40H76v65h150V0H24" id="w"/><path d="M185-48c-13 30-37 53-82 52C43 2 14-33 14-96s30-98 90-98c62 0 83 45 84 108H66c0 31 8 55 39 56 18 0 30-7 34-22zm-45-69c5-46-57-63-70-21-2 6-4 13-4 21h74" id="x"/><g id="a"><use transform="matrix(0.05,0,0,0.05,0,0)" xlink:href="#n"/><use transform="matrix(0.05,0,0,0.05,10,0)" xlink:href="#o"/><use transform="matrix(0.05,0,0,0.05,15.949999999999998,0)" xlink:href="#p"/><use transform="matrix(0.05,0,0,0.05,26.899999999999995,0)" xlink:href="#q"/><use transform="matrix(0.05,0,0,0.05,37.85,0)" xlink:href="#r"/><use transform="matrix(0.05,0,0,0.05,52.800000000000004,0)" xlink:href="#p"/><use transform="matrix(0.05,0,0,0.05,63.75,0)" xlink:href="#s"/><use transform="matrix(0.05,0,0,0.05,73.75,0)" xlink:href="#t"/><use transform="matrix(0.05,0,0,0.05,78.75,0)" xlink:href="#u"/><use transform="matrix(0.05,0,0,0.05,89.7,0)" xlink:href="#v"/><use transform="matrix(0.05,0,0,0.05,100.65,0)" xlink:href="#w"/><use transform="matrix(0.05,0,0,0.05,112.65,0)" xlink:href="#s"/><use transform="matrix(0.05,0,0,0.05,122.65,0)" xlink:href="#x"/><use transform="matrix(0.05,0,0,0.05,132.65,0)" xlink:href="#u"/><use transform="matrix(0.05,0,0,0.05,143.6,0)" xlink:href="#o"/></g><path d="M182-182c0 78-84 86-111 141h115V0H12c-6-101 99-100 120-180 1-22-12-31-33-32-23 0-32 14-35 34l-49-3c5-45 32-70 84-70 51 0 83 22 83 69" id="y"/><path d="M101-251c68 0 84 54 84 127C185-50 166 4 99 4S15-52 14-124c-1-75 17-127 87-127zm-1 216c37-5 36-46 36-89s4-89-36-89c-39 0-36 45-36 89 0 43-3 85 36 89" id="z"/><path d="M23 0v-37h61v-169l-59 37v-38l62-41h46v211h57V0H23" id="A"/><path d="M138-131c27 9 52 24 51 61 0 53-36 74-89 74S11-19 11-69c0-35 22-54 51-61-78-25-46-121 38-121 51 0 83 19 83 66 0 30-18 49-45 54zm-38-16c24 0 32-13 32-36 1-23-11-34-32-34-22 0-33 12-32 34 0 22 9 36 32 36zm1 116c27 0 37-17 37-43 0-25-13-39-39-39-24 0-37 15-37 40 0 27 11 42 39 42" id="B"/><path d="M14-72v-43h91v43H14" id="C"/><path d="M99-251c69 0 84 53 88 123 5 99-61 162-144 118-15-8-21-25-26-45l46-6c4 31 50 33 63 7 7-15 12-36 12-60-9 18-29 28-54 28-48 0-72-32-72-82 0-55 31-83 87-83zm-1 128c24 0 37-16 37-39 0-27-10-51-37-51-25 0-35 19-35 45 0 25 10 45 35 45" id="D"/><path d="M139-81c0-46-55-55-73-27H18l9-140h149v37H72l-4 63c44-38 133-4 122 66C201 21 21 35 11-62l49-4c5 18 15 30 39 30 26 0 40-18 40-45" id="E"/><path d="M136-208V0H84v-208H4v-40h212v40h-80" id="F"/><path d="M35-132v-50h50v50H35zM35 0v-49h50V0H35" id="G"/><path d="M210 0H11v-37l134-170H24v-41h178v36L68-41h142V0" id="H"/><g id="b"><use transform="matrix(0.05,0,0,0.05,0,0)" xlink:href="#y"/><use transform="matrix(0.05,0,0,0.05,10,0)" xlink:href="#z"/><use transform="matrix(0.05,0,0,0.05,20,0)" xlink:href="#A"/><use transform="matrix(0.05,0,0,0.05,30,0)" xlink:href="#B"/><use transform="matrix(0.05,0,0,0.05,40,0)" xlink:href="#C"/><use transform="matrix(0.05,0,0,0.05,45.95,0)" xlink:href="#z"/><use transform="matrix(0.05,0,0,0.05,55.95,0)" xlink:href="#D"/><use transform="matrix(0.05,0,0,0.05,65.95,0)" xlink:href="#C"/><use transform="matrix(0.05,0,0,0.05,71.9,0)" xlink:href="#z"/><use transform="matrix(0.05,0,0,0.05,81.9,0)" xlink:href="#E"/><use transform="matrix(0.05,0,0,0.05,91.9,0)" xlink:href="#F"/><use transform="matrix(0.05,0,0,0.05,102.85000000000001,0)" xlink:href="#A"/><use transform="matrix(0.05,0,0,0.05,112.85000000000001,0)" xlink:href="#y"/><use transform="matrix(0.05,0,0,0.05,122.85000000000001,0)" xlink:href="#G"/><use transform="matrix(0.05,0,0,0.05,128.8,0)" xlink:href="#z"/><use transform="matrix(0.05,0,0,0.05,138.8,0)" xlink:href="#z"/><use transform="matrix(0.05,0,0,0.05,148.8,0)" xlink:href="#H"/></g><path d="M133-34C117-15 103 5 69 4 32 3 11-16 11-54c-1-60 55-63 116-61 1-26-3-47-28-47-18 1-26 9-28 27l-52-2c7-38 36-58 82-57s74 22 75 68l1 82c-1 14 12 18 25 15v27c-30 8-71 5-69-32zm-48 3c29 0 43-24 42-57-32 0-66-3-65 30 0 17 8 27 23 27" id="I"/><path d="M135-150c-39-12-60 13-60 57V0H25l-1-190h47c2 13-1 29 3 40 6-28 27-53 61-41v41" id="J"/><g id="c"><use transform="matrix(0.05,0,0,0.05,0,0)" xlink:href="#n"/><use transform="matrix(0.05,0,0,0.05,10,0)" xlink:href="#o"/><use transform="matrix(0.05,0,0,0.05,15.949999999999998,0)" xlink:href="#I"/><use transform="matrix(0.05,0,0,0.05,25.950000000000003,0)" xlink:href="#J"/><use transform="matrix(0.05,0,0,0.05,32.95,0)" xlink:href="#o"/><use transform="matrix(0.05,0,0,0.05,38.900000000000006,0)" xlink:href="#r"/><use transform="matrix(0.05,0,0,0.05,53.85,0)" xlink:href="#p"/><use transform="matrix(0.05,0,0,0.05,64.80000000000001,0)" xlink:href="#s"/><use transform="matrix(0.05,0,0,0.05,74.80000000000001,0)" xlink:href="#t"/><use transform="matrix(0.05,0,0,0.05,79.80000000000001,0)" xlink:href="#u"/><use transform="matrix(0.05,0,0,0.05,90.75000000000001,0)" xlink:href="#v"/><use transform="matrix(0.05,0,0,0.05,101.70000000000002,0)" xlink:href="#w"/><use transform="matrix(0.05,0,0,0.05,113.7,0)" xlink:href="#s"/><use transform="matrix(0.05,0,0,0.05,123.7,0)" xlink:href="#x"/><use transform="matrix(0.05,0,0,0.05,133.70000000000002,0)" xlink:href="#u"/><use transform="matrix(0.05,0,0,0.05,144.65,0)" xlink:href="#o"/></g><path d="M128-127c34 4 56 21 59 58 7 91-148 94-172 28-4-9-6-17-7-26l51-5c1 24 16 35 40 36 23 0 39-12 38-36-1-31-31-36-65-34v-40c32 2 59-3 59-33 0-20-13-33-34-33s-33 13-35 32l-50-3c6-44 37-68 86-68 50 0 83 20 83 66 0 35-22 52-53 58" id="K"/><g id="d"><use transform="matrix(0.05,0,0,0.05,0,0)" xlink:href="#y"/><use transform="matrix(0.05,0,0,0.05,10,0)" xlink:href="#z"/><use transform="matrix(0.05,0,0,0.05,20,0)" xlink:href="#A"/><use transform="matrix(0.05,0,0,0.05,30,0)" xlink:href="#B"/><use transform="matrix(0.05,0,0,0.05,40,0)" xlink:href="#C"/><use transform="matrix(0.05,0,0,0.05,45.95,0)" xlink:href="#z"/><use transform="matrix(0.05,0,0,0.05,55.95,0)" xlink:href="#D"/><use transform="matrix(0.05,0,0,0.05,65.95,0)" xlink:href="#C"/><use transform="matrix(0.05,0,0,0.05,71.9,0)" xlink:href="#z"/><use transform="matrix(0.05,0,0,0.05,81.9,0)" xlink:href="#E"/><use transform="matrix(0.05,0,0,0.05,91.9,0)" xlink:href="#F"/><use transform="matrix(0.05,0,0,0.05,102.85000000000001,0)" xlink:href="#A"/><use transform="matrix(0.05,0,0,0.05,112.85000000000001,0)" xlink:href="#K"/><use transform="matrix(0.05,0,0,0.05,122.85000000000001,0)" xlink:href="#G"/><use transform="matrix(0.05,0,0,0.05,128.8,0)" xlink:href="#z"/><use transform="matrix(0.05,0,0,0.05,138.8,0)" xlink:href="#z"/><use transform="matrix(0.05,0,0,0.05,148.8,0)" xlink:href="#H"/></g><g id="e"><use transform="matrix(0.05,0,0,0.05,0,0)" xlink:href="#y"/><use transform="matrix(0.05,0,0,0.05,10,0)" xlink:href="#z"/><use transform="matrix(0.05,0,0,0.05,20,0)" xlink:href="#A"/><use transform="matrix(0.05,0,0,0.05,30,0)" xlink:href="#B"/><use transform="matrix(0.05,0,0,0.05,40,0)" xlink:href="#C"/><use transform="matrix(0.05,0,0,0.05,45.95,0)" xlink:href="#z"/><use transform="matrix(0.05,0,0,0.05,55.95,0)" xlink:href="#B"/><use transform="matrix(0.05,0,0,0.05,65.95,0)" xlink:href="#C"/><use transform="matrix(0.05,0,0,0.05,71.9,0)" xlink:href="#K"/><use transform="matrix(0.05,0,0,0.05,81.9,0)" xlink:href="#z"/><use transform="matrix(0.05,0,0,0.05,91.9,0)" xlink:href="#F"/><use transform="matrix(0.05,0,0,0.05,102.85000000000001,0)" xlink:href="#A"/><use transform="matrix(0.05,0,0,0.05,112.85000000000001,0)" xlink:href="#z"/><use transform="matrix(0.05,0,0,0.05,122.85000000000001,0)" xlink:href="#G"/><use transform="matrix(0.05,0,0,0.05,128.8,0)" xlink:href="#A"/><use transform="matrix(0.05,0,0,0.05,138.8,0)" xlink:href="#E"/><use transform="matrix(0.05,0,0,0.05,148.8,0)" xlink:href="#H"/></g><g id="f"><use transform="matrix(0.05,0,0,0.05,0,0)" xlink:href="#y"/><use transform="matrix(0.05,0,0,0.05,10,0)" xlink:href="#z"/><use transform="matrix(0.05,0,0,0.05,20,0)" xlink:href="#A"/><use transform="matrix(0.05,0,0,0.05,30,0)" xlink:href="#B"/><use transform="matrix(0.05,0,0,0.05,40,0)" xlink:href="#C"/><use transform="matrix(0.05,0,0,0.05,45.95,0)" xlink:href="#z"/><use transform="matrix(0.05,0,0,0.05,55.95,0)" xlink:href="#B"/><use transform="matrix(0.05,0,0,0.05,65.95,0)" xlink:href="#C"/><use transform="matrix(0.05,0,0,0.05,71.9,0)" xlink:href="#K"/><use transform="matrix(0.05,0,0,0.05,81.9,0)" xlink:href="#z"/><use transform="matrix(0.05,0,0,0.05,91.9,0)" xlink:href="#F"/><use transform="matrix(0.05,0,0,0.05,102.85000000000001,0)" xlink:href="#z"/><use transform="matrix(0.05,0,0,0.05,112.85000000000001,0)" xlink:href="#D"/><use transform="matrix(0.05,0,0,0.05,122.85000000000001,0)" xlink:href="#G"/><use transform="matrix(0.05,0,0,0.05,128.8,0)" xlink:href="#A"/><use transform="matrix(0.05,0,0,0.05,138.8,0)" xlink:href="#E"/><use transform="matrix(0.05,0,0,0.05,148.8,0)" xlink:href="#H"/></g><g id="g"><use transform="matrix(0.05,0,0,0.05,0,0)" xlink:href="#w"/><use transform="matrix(0.05,0,0,0.05,12,0)" xlink:href="#s"/><use transform="matrix(0.05,0,0,0.05,22,0)" xlink:href="#x"/><use transform="matrix(0.05,0,0,0.05,32,0)" xlink:href="#u"/><use transform="matrix(0.05,0,0,0.05,42.95,0)" xlink:href="#o"/></g><path d="M220-157c-53 9-28 100-34 157h-49v-107c1-27-5-49-29-50C55-147 81-57 75 0H25l-1-190h47c2 12-1 28 3 38 10-53 101-56 108 0 13-22 24-43 59-42 82 1 51 116 57 194h-49v-107c-1-25-5-48-29-50" id="L"/><g id="h"><use transform="matrix(0.05,0,0,0.05,0,0)" xlink:href="#o"/><use transform="matrix(0.05,0,0,0.05,5.95,0)" xlink:href="#t"/><use transform="matrix(0.05,0,0,0.05,10.95,0)" xlink:href="#L"/><use transform="matrix(0.05,0,0,0.05,26.950000000000003,0)" xlink:href="#x"/></g><g id="i"><use transform="matrix(0.05,0,0,0.05,0,0)" xlink:href="#w"/><use transform="matrix(0.05,0,0,0.05,12,0)" xlink:href="#s"/><use transform="matrix(0.05,0,0,0.05,22,0)" xlink:href="#x"/><use transform="matrix(0.05,0,0,0.05,32,0)" xlink:href="#u"/><use transform="matrix(0.05,0,0,0.05,42.95,0)" xlink:href="#o"/></g><g id="j"><use transform="matrix(0.05,0,0,0.05,0,0)" xlink:href="#v"/><use transform="matrix(0.05,0,0,0.05,10.950000000000001,0)" xlink:href="#x"/><use transform="matrix(0.05,0,0,0.05,20.950000000000003,0)" xlink:href="#u"/><use transform="matrix(0.05,0,0,0.05,31.900000000000006,0)" xlink:href="#x"/><use transform="matrix(0.05,0,0,0.05,41.900000000000006,0)" xlink:href="#J"/><use transform="matrix(0.05,0,0,0.05,48.900000000000006,0)" xlink:href="#I"/><use transform="matrix(0.05,0,0,0.05,58.900000000000006,0)" xlink:href="#o"/><use transform="matrix(0.05,0,0,0.05,64.85000000000001,0)" xlink:href="#t"/><use transform="matrix(0.05,0,0,0.05,69.85000000000001,0)" xlink:href="#p"/><use transform="matrix(0.05,0,0,0.05,80.80000000000001,0)" xlink:href="#u"/></g><path fill="#c92d39" d="M190-63c-7 42-38 67-86 67-59 0-84-38-90-98-12-110 154-137 174-36l-49 2c-2-19-15-32-35-32-30 0-35 28-38 64-6 74 65 87 74 30" id="M"/><path fill="#c92d39" d="M133-34C117-15 103 5 69 4 32 3 11-16 11-54c-1-60 55-63 116-61 1-26-3-47-28-47-18 1-26 9-28 27l-52-2c7-38 36-58 82-57s74 22 75 68l1 82c-1 14 12 18 25 15v27c-30 8-71 5-69-32zm-48 3c29 0 43-24 42-57-32 0-66-3-65 30 0 17 8 27 23 27" id="N"/><path fill="#c92d39" d="M135-194c87-1 58 113 63 194h-50c-7-57 23-157-34-157-59 0-34 97-39 157H25l-1-190h47c2 12-1 28 3 38 12-26 28-41 61-42" id="O"/><path fill="#c92d39" d="M185-48c-13 30-37 53-82 52C43 2 14-33 14-96s30-98 90-98c62 0 83 45 84 108H66c0 31 8 55 39 56 18 0 30-7 34-22zm-45-69c5-46-57-63-70-21-2 6-4 13-4 21h74" id="P"/><path fill="#c92d39" d="M25 0v-261h50V0H25" id="Q"/><path fill="#c92d39" d="M199 0l-22-63H83L61 0H9l90-248h61L250 0h-51zm-33-102l-36-108c-10 38-24 72-36 108h72" id="R"/><path fill="#c92d39" d="M24 0v-248h195v40H76v63h132v40H76v65h150V0H24" id="S"/><path fill="#c92d39" d="M115-3C79 11 28 4 28-45v-112H4v-33h27l15-45h31v45h36v33H77v99c-1 23 16 31 38 25v30" id="T"/><path fill="#c92d39" d="M25-224v-37h50v37H25zM25 0v-190h50V0H25" id="U"/><path fill="#c92d39" d="M123 10C108 53 80 86 19 72V37c35 8 53-11 59-39L3-190h52l48 148c12-52 28-100 44-148h51" id="V"/><path fill="#c92d39" d="M128 0H69L1-190h53L99-40l48-150h52" id="W"/><path fill="#c92d39" d="M137-138c1-29-70-34-71-4 15 46 118 7 119 86 1 83-164 76-172 9l43-7c4 19 20 25 44 25 33 8 57-30 24-41C81-84 22-81 20-136c-2-80 154-74 161-7" id="X"/><g id="k"><use transform="matrix(0.05,0,0,0.05,0,0)" xlink:href="#M"/><use transform="matrix(0.05,0,0,0.05,10,0)" xlink:href="#N"/><use transform="matrix(0.05,0,0,0.05,20,0)" xlink:href="#O"/><use transform="matrix(0.05,0,0,0.05,30.950000000000003,0)" xlink:href="#M"/><use transform="matrix(0.05,0,0,0.05,40.95,0)" xlink:href="#P"/><use transform="matrix(0.05,0,0,0.05,50.95,0)" xlink:href="#Q"/><use transform="matrix(0.05,0,0,0.05,55.95,0)" xlink:href="#R"/><use transform="matrix(0.05,0,0,0.05,68.9,0)" xlink:href="#Q"/><use transform="matrix(0.05,0,0,0.05,73.9,0)" xlink:href="#Q"/><use transform="matrix(0.05,0,0,0.05,78.9,0)" xlink:href="#S"/><use transform="matrix(0.05,0,0,0.05,90.9,0)" xlink:href="#O"/><use transform="matrix(0.05,0,0,0.05,101.85000000000001,0)" xlink:href="#T"/><use transform="matrix(0.05,0,0,0.05,107.80000000000001,0)" xlink:href="#U"/><use transform="matrix(0.05,0,0,0.05,112.80000000000001,0)" xlink:href="#T"/><use transform="matrix(0.05,0,0,0.05,118.75,0)" xlink:href="#V"/><use transform="matrix(0.05,0,0,0.05,128.75,0)" xlink:href="#S"/><use transform="matrix(0.05,0,0,0.05,140.75,0)" xlink:href="#W"/><use transform="matrix(0.05,0,0,0.05,150.75,0)" xlink:href="#P"/><use transform="matrix(0.05,0,0,0.05,160.75,0)" xlink:href="#O"/><use transform="matrix(0.05,0,0,0.05,171.7,0)" xlink:href="#T"/><use transform="matrix(0.05,0,0,0.05,177.64999999999998,0)" xlink:href="#X"/></g><path fill="#c92d39" d="M182-182c0 78-84 86-111 141h115V0H12c-6-101 99-100 120-180 1-22-12-31-33-32-23 0-32 14-35 34l-49-3c5-45 32-70 84-70 51 0 83 22 83 69" id="Y"/><path fill="#c92d39" d="M101-251c68 0 84 54 84 127C185-50 166 4 99 4S15-52 14-124c-1-75 17-127 87-127zm-1 216c37-5 36-46 36-89s4-89-36-89c-39 0-36 45-36 89 0 43-3 85 36 89" id="Z"/><path fill="#c92d39" d="M23 0v-37h61v-169l-59 37v-38l62-41h46v211h57V0H23" id="aa"/><path fill="#c92d39" d="M138-131c27 9 52 24 51 61 0 53-36 74-89 74S11-19 11-69c0-35 22-54 51-61-78-25-46-121 38-121 51 0 83 19 83 66 0 30-18 49-45 54zm-38-16c24 0 32-13 32-36 1-23-11-34-32-34-22 0-33 12-32 34 0 22 9 36 32 36zm1 116c27 0 37-17 37-43 0-25-13-39-39-39-24 0-37 15-37 40 0 27 11 42 39 42" id="ab"/><path fill="#c92d39" d="M14-72v-43h91v43H14" id="ac"/><path fill="#c92d39" d="M128-127c34 4 56 21 59 58 7 91-148 94-172 28-4-9-6-17-7-26l51-5c1 24 16 35 40 36 23 0 39-12 38-36-1-31-31-36-65-34v-40c32 2 59-3 59-33 0-20-13-33-34-33s-33 13-35 32l-50-3c6-44 37-68 86-68 50 0 83 20 83 66 0 35-22 52-53 58" id="ad"/><path fill="#c92d39" d="M136-208V0H84v-208H4v-40h212v40h-80" id="ae"/><path fill="#c92d39" d="M99-251c69 0 84 53 88 123 5 99-61 162-144 118-15-8-21-25-26-45l46-6c4 31 50 33 63 7 7-15 12-36 12-60-9 18-29 28-54 28-48 0-72-32-72-82 0-55 31-83 87-83zm-1 128c24 0 37-16 37-39 0-27-10-51-37-51-25 0-35 19-35 45 0 25 10 45 35 45" id="af"/><path fill="#c92d39" d="M35-132v-50h50v50H35zM35 0v-49h50V0H35" id="ag"/><path fill="#c92d39" d="M165-50V0h-47v-50H5v-38l105-160h55v161h33v37h-33zm-47-37l2-116L46-87h72" id="ah"/><path fill="#c92d39" d="M139-81c0-46-55-55-73-27H18l9-140h149v37H72l-4 63c44-38 133-4 122 66C201 21 21 35 11-62l49-4c5 18 15 30 39 30 26 0 40-18 40-45" id="ai"/><path fill="#c92d39" d="M210 0H11v-37l134-170H24v-41h178v36L68-41h142V0" id="aj"/><g id="l"><use transform="matrix(0.05,0,0,0.05,0,0)" xlink:href="#Y"/><use transform="matrix(0.05,0,0,0.05,10,0)" xlink:href="#Z"/><use transform="matrix(0.05,0,0,0.05,20,0)" xlink:href="#aa"/><use transform="matrix(0.05,0,0,0.05,30,0)" xlink:href="#ab"/><use transform="matrix(0.05,0,0,0.05,40,0)" xlink:href="#ac"/><use transform="matrix(0.05,0,0,0.05,45.95,0)" xlink:href="#Z"/><use transform="matrix(0.05,0,0,0.05,55.95,0)" xlink:href="#ab"/><use transform="matrix(0.05,0,0,0.05,65.95,0)" xlink:href="#ac"/><use transform="matrix(0.05,0,0,0.05,71.9,0)" xlink:href="#ad"/><use transform="matrix(0.05,0,0,0.05,81.9,0)" xlink:href="#Z"/><use transform="matrix(0.05,0,0,0.05,91.9,0)" xlink:href="#ae"/><use transform="matrix(0.05,0,0,0.05,102.85000000000001,0)" xlink:href="#Z"/><use transform="matrix(0.05,0,0,0.05,112.85000000000001,0)" xlink:href="#af"/><use transform="matrix(0.05,0,0,0.05,122.85000000000001,0)" xlink:href="#ag"/><use transform="matrix(0.05,0,0,0.05,128.8,0)" xlink:href="#ah"/><use transform="matrix(0.05,0,0,0.05,138.8,0)" xlink:href="#ai"/><use transform="matrix(0.05,0,0,0.05,148.8,0)" xlink:href="#aj"/></g><g id="m"><use transform="matrix(0.05,0,0,0.05,0,0)" xlink:href="#Y"/><use transform="matrix(0.05,0,0,0.05,10,0)" xlink:href="#Z"/><use transform="matrix(0.05,0,0,0.05,20,0)" xlink:href="#aa"/><use transform="matrix(0.05,0,0,0.05,30,0)" xlink:href="#ab"/><use transform="matrix(0.05,0,0,0.05,40,0)" xlink:href="#ac"/><use transform="matrix(0.05,0,0,0.05,45.95,0)" xlink:href="#Z"/><use transform="matrix(0.05,0,0,0.05,55.95,0)" xlink:href="#ab"/><use transform="matrix(0.05,0,0,0.05,65.95,0)" xlink:href="#ac"/><use transform="matrix(0.05,0,0,0.05,71.9,0)" xlink:href="#ad"/><use transform="matrix(0.05,0,0,0.05,81.9,0)" xlink:href="#Z"/><use transform="matrix(0.05,0,0,0.05,91.9,0)" xlink:href="#ae"/><use transform="matrix(0.05,0,0,0.05,102.85000000000001,0)" xlink:href="#aa"/><use transform="matrix(0.05,0,0,0.05,111.85000000000001,0)" xlink:href="#aa"/><use transform="matrix(0.05,0,0,0.05,121.85000000000001,0)" xlink:href="#ag"/><use transform="matrix(0.05,0,0,0.05,127.80000000000001,0)" xlink:href="#ah"/><use transform="matrix(0.05,0,0,0.05,137.8,0)" xlink:href="#ab"/><use transform="matrix(0.05,0,0,0.05,147.8,0)" xlink:href="#aj"/></g></defs></g></svg>