<svg xmlns="http://www.w3.org/2000/svg" id="svg8468" width="424.559" height="298.225" fill="none" stroke-miterlimit="10" xmlns:xlink="http://www.w3.org/1999/xlink" viewBox="0 0 424.55908 298.22467" stroke-linecap="square">
  <defs>
    <style>
      @import url(https://fonts.googleapis.com/css?family=Montserrat:400,700);
    </style>
  </defs>
  <path fill="#366092" stroke="#666" d="M308.28 272.76l28.944-32.925v14.472c46.336-12.954 80.536-55.44 86.06-106.91 6.678 62.204-30.062 120.2-86.06 135.855v14.473z"/>
  <path fill="#2b4c74" stroke="#666" d="M424.06 161.87c0-69.235-51.837-125.36-115.78-125.36V7.563c30.706 0 60.155 13.208 81.868 36.718 21.713 23.51 33.91 55.398 33.91 88.646z"/>
  <path fill="#366092" stroke="#666" d="M116.28 25.464L87.335 58.39V43.917C41 56.87 6.8 99.357 1.275 150.827c-6.678-62.203 30.062-120.2 86.06-135.855V.5z"/>
  <path fill="#2b4c74" stroke="#666" d="M.5 136.354c0 69.235 51.836 125.362 115.78 125.362v28.945c-30.707 0-60.156-13.205-81.87-36.715C12.7 230.435.5 198.547.5 165.3z"/>
  <a target="_top" xlink:href="/#section/The-model/Life-cycle-phases">
    <rect fill="#4bb84c" stroke="#666" x="117" y="7" width="95" height="29" />
    <text x="163.5" y="21.5" fill="#fff" font-size="20" font-family="Montserrat, sans-serif" text-anchor="middle" dominant-baseline="central">projected</text>
  </a>
  <a target="_top" xlink:href="/#section/The-model/Life-cycle-phases">
    <rect fill="#4bb84c" stroke="#666" x="213" y="7" width="95" height="29" />
    <text x="261.5" y="21.5" fill="#fff" font-size="20" font-family="Montserrat, sans-serif" text-anchor="middle" dominant-baseline="central">actual</text>
  </a>
  <a target="_top" xlink:href="/#section/The-model/Life-cycle-phases">
    <rect fill="#4bb84c" stroke="#666" x="117" y="261" width="95" height="29" />
    <text x="163.5" y="275.5" fill="#fff" font-size="20" font-family="Montserrat, sans-serif" text-anchor="middle" dominant-baseline="central">planned</text>
  </a>
  <a target="_top" xlink:href="/#section/The-model/Life-cycle-phases">
    <rect fill="#4bb84c" stroke="#666" x="213" y="261" width="95" height="29" />
    <text x="261.5" y="275.5" fill="#fff" font-size="20" font-family="Montserrat, sans-serif" text-anchor="middle" dominant-baseline="central">realized</text>
  </a>
  <a target="_top" xlink:href="/#tag/Location">
    <rect fill="#fec052" stroke="#666" x="95" y="73" width="106" height="35" />
    <text x="148" y="90.5" fill="#fff" font-size="20" font-family="Montserrat, sans-serif" text-anchor="middle" dominant-baseline="central">Location</text>
  </a>
  <a target="_top" xlink:href="/#tag/Vehicle">
    <rect fill="#fec052" stroke="#666" x="232" y="73" width="106" height="35" />
    <text x="285" y="90.5" fill="#fff" font-size="20" font-family="Montserrat, sans-serif" text-anchor="middle" dominant-baseline="central">Vehicle</text>
  </a>
  <a target="_top" xlink:href="/#tag/Route">
    <rect fill="#fec052" stroke="#666" x="33" y="135" width="106" height="35" />
    <text x="86" y="152.5" fill="#fff" font-size="20" font-family="Montserrat, sans-serif" text-anchor="middle" dominant-baseline="central">Route</text>
  </a>
  <a target="_top" xlink:href="/#tag/Event">
    <rect fill="#f36f39" stroke="#666" x="163" y="135" width="106" height="35" />
    <text x="216" y="152.5" fill="#fff" font-size="20" font-family="Montserrat, sans-serif" text-anchor="middle" dominant-baseline="central">Event</text>
  </a>
  <a target="_top" xlink:href="/#tag/Trip">
    <rect fill="#fec052" stroke="#666" x="292" y="135" width="106" height="35" />
    <text x="345" y="152.5" fill="#fff" font-size="20" font-family="Montserrat, sans-serif" text-anchor="middle" dominant-baseline="central">Trip</text>
  </a>
  <a target="_top" xlink:href="/#tag/Shipment">
    <rect fill="#fec052" stroke="#666" x="95" y="190" width="106" height="35" />
    <text x="148" y="207.5" fill="#fff" font-size="20" font-family="Montserrat, sans-serif" text-anchor="middle" dominant-baseline="central">Shipment</text>
  </a>
  <a target="_top" xlink:href="/#tag/Actor">
    <rect fill="#fec052" stroke="#666" x="232" y="190" width="106" height="35" />
    <text x="285" y="207.5" fill="#fff" font-size="20" font-family="Montserrat, sans-serif" text-anchor="middle" dominant-baseline="central">Actor</text>
  </a>
</svg>
